<svg width="31" height="30" viewBox="0 0 31 30" fill="none" xmlns="http://www.w3.org/2000/svg">
<path d="M6.75 26.25H4.25V25C4.25551 20.1698 8.16979 16.2555 13 16.25H18C22.8302 16.2555 26.7445 20.1698 26.75 25V26.25H24.25V25C24.2459 21.5499 21.4501 18.7541 18 18.75H13C9.54993 18.7541 6.75413 21.5499 6.75 25V26.25ZM15.5 15C12.0482 15 9.25 12.2018 9.25 8.75C9.25 5.29822 12.0482 2.5 15.5 2.5C18.9518 2.5 21.75 5.29822 21.75 8.75C21.7459 12.2001 18.9501 14.9959 15.5 15ZM15.5 5C13.4289 5 11.75 6.67893 11.75 8.75C11.75 10.8211 13.4289 12.5 15.5 12.5C17.5711 12.5 19.25 10.8211 19.25 8.75C19.25 6.67893 17.5711 5 15.5 5Z" fill="#010128"/>
</svg>
