<svg width="30" height="31" viewBox="0 0 30 31" fill="none" xmlns="http://www.w3.org/2000/svg">
<path d="M25.312 7.0625L4.68701 7.06251" stroke="#F0F1F2" stroke-width="2" stroke-linecap="round" stroke-linejoin="round"/>
<path d="M12.1875 12.6875V20.1875" stroke="#F0F1F2" stroke-width="2" stroke-linecap="round" stroke-linejoin="round"/>
<path d="M17.8125 12.6875V20.1875" stroke="#F0F1F2" stroke-width="2" stroke-linecap="round" stroke-linejoin="round"/>
<path d="M23.437 7.06251V24.875C23.437 25.1236 23.3382 25.3621 23.1624 25.5379C22.9866 25.7137 22.7482 25.8125 22.4995 25.8125H7.49951C7.25087 25.8125 7.01241 25.7137 6.8366 25.5379C6.66078 25.3621 6.56201 25.1236 6.56201 24.875V7.0625" stroke="#F0F1F2" stroke-width="2" stroke-linecap="round" stroke-linejoin="round"/>
<path d="M19.6875 7.0625V5.1875C19.6875 4.69022 19.49 4.21331 19.1383 3.86167C18.7867 3.51004 18.3098 3.3125 17.8125 3.3125H12.1875C11.6902 3.3125 11.2133 3.51004 10.8617 3.86167C10.51 4.21331 10.3125 4.69022 10.3125 5.1875V7.0625" stroke="#F0F1F2" stroke-width="2" stroke-linecap="round" stroke-linejoin="round"/>
</svg>
