<svg width="30" height="31" viewBox="0 0 30 31" fill="none" xmlns="http://www.w3.org/2000/svg">
<path d="M11.25 25.8125H5.625C5.37636 25.8125 5.1379 25.7137 4.96209 25.5379C4.78627 25.3621 4.6875 25.1236 4.6875 24.875V19.6383C4.6875 19.5152 4.71175 19.3933 4.75886 19.2796C4.80598 19.1658 4.87503 19.0625 4.96209 18.9754L19.0246 4.91291C19.2004 4.7371 19.4389 4.63832 19.6875 4.63832C19.9361 4.63832 20.1746 4.7371 20.3504 4.91291L25.5871 10.1496C25.7629 10.3254 25.8617 10.5639 25.8617 10.8125C25.8617 11.0611 25.7629 11.2996 25.5871 11.4754L11.25 25.8125Z" stroke="#010128" stroke-width="2" stroke-linecap="round" stroke-linejoin="round"/>
<path d="M15.9375 8L22.5 14.5625" stroke="#010128" stroke-width="2" stroke-linecap="round" stroke-linejoin="round"/>
</svg>
