<svg width="30" height="30" viewBox="0 0 30 30" fill="none" xmlns="http://www.w3.org/2000/svg">
<path d="M24.7903 28H4.45268C3.65039 28 3 27.3496 3 26.5473V12.5391C3.0225 12.1831 3.1738 11.8475 3.42564 11.5948L13.5944 1.42605C13.8669 1.15327 14.2366 1 14.6222 1C15.0078 1 15.3775 1.15327 15.65 1.42605L25.8188 11.5948C26.0915 11.8669 26.2442 12.2367 26.2429 12.6219V26.5473C26.2429 27.3496 25.5926 28 24.7903 28ZM14.6215 4.5072L5.90537 13.2233V25.0946H23.3376V13.2233L14.6215 4.5072ZM14.6215 22.1878C14.3193 21.9191 13.9779 21.6387 13.6162 21.3423L13.5479 21.2871C11.8672 19.9158 9.77096 18.2089 9.77096 16.0865C9.77119 15.3834 10.0546 14.7099 10.5573 14.2182C11.0599 13.7265 11.7394 13.4579 12.4424 13.4732C13.2737 13.4709 14.0664 13.8234 14.6215 14.4421C15.1767 13.8236 15.9693 13.4711 16.8005 13.4732C17.5028 13.4595 18.181 13.729 18.6824 14.2208C19.1838 14.7127 19.4663 15.3856 19.4662 16.088C19.4662 18.2176 17.3569 19.9362 15.663 21.3177L15.5802 21.3859C15.236 21.6678 14.9106 21.9336 14.62 22.1907L14.6215 22.1878Z" fill="#010128"/>
</svg>
