<svg width="26" height="24" viewBox="0 0 26 24" fill="none" xmlns="http://www.w3.org/2000/svg">
<path d="M2.93176 1.625H23.0682C23.2498 1.625 23.4276 1.67776 23.5798 1.77686C23.732 1.87596 23.8521 2.01713 23.9256 2.18323C23.9991 2.34933 24.0227 2.53319 23.9936 2.71247C23.9646 2.89176 23.8841 3.05874 23.7619 3.19313L16.0563 11.6693C15.8994 11.8419 15.8125 12.0667 15.8125 12.2999V18.9358C15.8125 19.0901 15.7744 19.2421 15.7016 19.3781C15.6287 19.5142 15.5234 19.6302 15.395 19.7158L11.645 22.2158C11.5038 22.3099 11.3397 22.364 11.1703 22.3722C11.0008 22.3804 10.8322 22.3424 10.6826 22.2623C10.533 22.1823 10.4079 22.0631 10.3207 21.9175C10.2335 21.772 10.1875 21.6055 10.1875 21.4358V12.2999C10.1875 12.0667 10.1006 11.8419 9.94368 11.6693L2.23806 3.19313C2.11589 3.05874 2.03538 2.89176 2.00633 2.71247C1.97727 2.53319 2.00092 2.34933 2.0744 2.18323C2.14787 2.01713 2.26801 1.87596 2.42022 1.77686C2.57242 1.67776 2.75013 1.625 2.93176 1.625V1.625Z" stroke="#010128" stroke-width="2" stroke-linecap="round" stroke-linejoin="round"/>
</svg>
