<svg width="82" height="84" viewBox="0 0 82 84" fill="none" xmlns="http://www.w3.org/2000/svg">
<path d="M0 73.7654V68.5654C0.0178266 68.093 0.0848565 67.6238 0.200001 67.1654C0.316499 64.4164 0.787049 61.694 1.6 59.0654C2.3 57.3654 2.7 57.0654 4.5 57.0654H18.6C21.5 57.0654 24.3 56.8654 27.1 56.7654C27.6 56.7654 27.8 56.5654 27.9 56.0654L28.2 53.6654C29.2348 47.9718 31.3751 42.536 34.5 37.6654C36.6 34.1654 39 30.7654 41.3 27.3654C42.2181 25.9314 43.0206 24.4267 43.7 22.8654C44.6 20.6654 44.2 18.3654 44.1 16.0654C43.9337 14.5045 43.8669 12.9347 43.9 11.3654C43.921 10.5835 44.2277 9.83646 44.762 9.2653C45.2963 8.69413 46.0213 8.33843 46.8 8.26538C47.4523 8.09542 48.127 8.02795 48.8 8.06538V6.56538C49.0212 4.95665 49.6022 3.4185 50.5 2.06538C52.2 -0.434617 55.8 -0.534617 58.3 1.06538C59.8146 2.01825 61.2523 3.08819 62.6 4.26538L73.6 13.9654C77.1784 17.2442 79.5106 21.6612 80.2 26.4654C80.7694 29.9747 81.1367 33.5139 81.3 37.0654C81.45 39.6966 81.45 42.3342 81.3 44.9654C81.2 46.1654 80.6 47.2654 80.4 48.4654C80.0023 50.9471 79.1188 53.3258 77.8 55.4654C74.4151 60.6271 70.4196 65.3613 65.9 69.5654C61.9161 73.4804 57.323 76.7226 52.3 79.1654C46.5127 81.7557 40.2405 83.0851 33.9 83.0654H3.5C3.12486 83.0804 2.75368 82.9839 2.43332 82.7881C2.11296 82.5924 1.85778 82.3061 1.7 81.9654C0.97616 80.1379 0.505144 78.2202 0.299999 76.2654L0 73.7654ZM57.7 17.3654H57.5V17.8654C58.1158 20.1968 58.0812 22.6523 57.4 24.9654C56.5 28.2654 55.7 31.6654 55 35.0654C54.679 36.0208 54.6603 37.0519 54.9467 38.0182C55.233 38.9846 55.8103 39.8391 56.6 40.4654C56.7278 40.5601 56.8784 40.6193 57.0365 40.6368C57.1946 40.6544 57.3545 40.6297 57.5 40.5654L64.5 36.4654C64.9 36.2654 65 35.9654 64.8 35.6654C63.9157 33.5261 63.8799 31.1301 64.7 28.9654C65 28.0654 65 27.4654 64.1 27.0654C63.8012 26.9576 63.5522 26.7442 63.4 26.4654C61.0646 24.0674 59.2589 21.2056 58.1 18.0654C58 17.8654 57.8 17.6654 57.7 17.3654Z" fill="white"/>
</svg>
