<svg width="31" height="30" viewBox="0 0 31 30" fill="none" xmlns="http://www.w3.org/2000/svg">
<path d="M5.6875 7.5H26.1268C26.2641 7.5 26.3997 7.53016 26.5241 7.58835C26.6485 7.64655 26.7585 7.73135 26.8465 7.83676C26.9345 7.94218 26.9983 8.06563 27.0333 8.1984C27.0683 8.33117 27.0737 8.47001 27.0492 8.60511L25.0049 19.8551C24.9656 20.0711 24.8518 20.2665 24.6832 20.4072C24.5147 20.5479 24.3021 20.625 24.0825 20.625H8.86546C8.64599 20.625 8.43348 20.548 8.26494 20.4074C8.09641 20.2668 7.98254 20.0716 7.94316 19.8557L4.97552 3.58181C4.93615 3.36591 4.82227 3.17066 4.65374 3.03008C4.48521 2.8895 4.27269 2.8125 4.05323 2.8125H1.9375" stroke="#010128" stroke-width="2" stroke-linecap="round" stroke-linejoin="round"/>
<path d="M9.4375 27.1875C10.473 27.1875 11.3125 26.348 11.3125 25.3125C11.3125 24.277 10.473 23.4375 9.4375 23.4375C8.40197 23.4375 7.5625 24.277 7.5625 25.3125C7.5625 26.348 8.40197 27.1875 9.4375 27.1875Z" fill="#010128"/>
<path d="M23.5 27.1875C24.5355 27.1875 25.375 26.348 25.375 25.3125C25.375 24.277 24.5355 23.4375 23.5 23.4375C22.4645 23.4375 21.625 24.277 21.625 25.3125C21.625 26.348 22.4645 27.1875 23.5 27.1875Z" fill="#010128"/>
</svg>
