<svg width="30" height="30" viewBox="0 0 30 30" fill="none" xmlns="http://www.w3.org/2000/svg">
<path d="M4.93164 5.625H25.0681C25.2497 5.625 25.4274 5.67776 25.5796 5.77686C25.7318 5.87596 25.852 6.01713 25.9255 6.18323C25.9989 6.34933 26.0226 6.53319 25.9935 6.71247C25.9645 6.89176 25.884 7.05874 25.7618 7.19313L18.0562 15.6693C17.8993 15.8419 17.8124 16.0667 17.8124 16.2999V22.9358C17.8124 23.0901 17.7743 23.2421 17.7014 23.3781C17.6286 23.5142 17.5233 23.6302 17.3949 23.7158L13.6449 26.2158C13.5037 26.3099 13.3396 26.364 13.1701 26.3722C13.0007 26.3804 12.8321 26.3424 12.6825 26.2623C12.5329 26.1823 12.4078 26.0631 12.3206 25.9175C12.2334 25.772 12.1874 25.6055 12.1874 25.4358V16.2999C12.1874 16.0667 12.1004 15.8419 11.9436 15.6693L4.23795 7.19313C4.11577 7.05874 4.03527 6.89176 4.00621 6.71247C3.97716 6.53319 4.00081 6.34933 4.07428 6.18323C4.14776 6.01713 4.2679 5.87596 4.4201 5.77686C4.57231 5.67776 4.75002 5.625 4.93164 5.625V5.625Z" stroke="#010128" stroke-width="2" stroke-linecap="round" stroke-linejoin="round"/>
</svg>
